<?xml version="1.0" encoding="utf-8"?>
<!-- Generator: Adobe Illustrator 16.0.3, SVG Export Plug-In . SVG Version: 6.00 Build 0)  -->
<!DOCTYPE svg PUBLIC "-//W3C//DTD SVG 1.1//EN" "http://www.w3.org/Graphics/SVG/1.1/DTD/svg11.dtd">
<svg version="1.1" id="Layer_1" xmlns="http://www.w3.org/2000/svg" xmlns:xlink="http://www.w3.org/1999/xlink" x="0px" y="0px"
	 width="119px" height="119px" viewBox="0 0 119 119" enable-background="new 0 0 119 119" xml:space="preserve">
<circle fill="#FFFFFF" cx="59.492" cy="59.5" r="59.492"/>
<circle fill="#1E184E" cx="59.589" cy="59.403" r="58.425"/>
<polygon fill="#FFFFFF" points="22.544,79.417 32.147,44.75 35.028,44.75 35.028,41.293 31.667,41.293 31.667,37.932 41.079,37.932 
	41.079,41.197 37.813,41.197 37.813,44.558 40.214,44.558 51.065,78.167 38.966,55.217 36.757,78.552 33.876,55.409 "/>
<g>
	<path fill="#FFFFFF" d="M43.569,29.483c1.722,2.775,2.84,2.858,3.507,2.909c0.136,0.01,0.26,0.021,0.369,0.039
		c0.057,0.009,0.139,0.016,0.238,0.025c0.789,0.075,2.431,0.23,3.093,1.533c0.509,1,0.261,2.319-0.757,4.032
		c-0.64,1.076-0.817,2.044-0.543,2.819c1.18-1.153,2.47-2.231,3.831-3.086c-1.821-1.909-2.941-4.492-2.941-7.339
		c0-3.029,1.268-5.76,3.3-7.697l-7.921-8.939c-0.041,0.016-0.082,0.032-0.12,0.043c-0.851,0.243-8.145,9.726-8.145,9.726
		s-0.055,1.593-0.091,3.081C38.986,26.339,41.8,26.632,43.569,29.483z"/>
	<path fill="#FFFFFF" d="M57.29,20.445L53.831,9.063L53.769,9.08c0,0-4.863,2.188-5.228,2.553c-0.21,0.21-0.867,0.826-1.548,1.356
		l7.794,8.795C55.552,21.233,56.392,20.779,57.29,20.445z"/>
	<path fill="#FFFFFF" d="M69.082,23.5c3.085-1.602,9.853-3.327,11.508-3.736c-0.805-1.615-1.606-3.231-2.143-4.485
		c-0.542-1.264-1.37-2.226-2.195-2.936c-1.142,1.377-6.785,8.186-8.298,10.024C68.358,22.717,68.735,23.095,69.082,23.5z"/>
	<path fill="#FFFFFF" d="M57.112,40.314c-0.269,0.984-0.94,2.079-2.356,2.941c-1.641,0.999-3.887,0.877-5.37-0.219
		c-2.482,2.684-4.337,5.513-4.967,6.516c0.223,0.405,0.46,0.847,0.719,1.347c1.824,3.525,4.133,3.89,4.984,4.255
		c0.851,0.364,1.702,1.215,5.835,3.282c2.567,1.283,5.509,1.957,7.37,2.283c-1.605-4.66-3.858-17.103-4.348-19.862
		C58.334,40.733,57.71,40.55,57.112,40.314z"/>
	<path fill="#FFFFFF" d="M61.002,19.778c2.134,0,4.121,0.631,5.785,1.713c1.433-1.741,7.027-8.492,8.289-10.014
		c-0.908-0.572-1.613-0.817-1.613-0.817s-4.133-1.702-5.47-2.553c-1.337-0.851-4.742-1.945-5.836-1.945
		c-1.094,0-5.349,2.067-5.349,2.067l-1.572,0.44l3.454,11.364C59.435,19.868,60.208,19.778,61.002,19.778z"/>
	<path fill="#FFFFFF" d="M48.766,37.275c0.711-1.196,0.964-2.128,0.711-2.626c-0.298-0.587-1.4-0.691-1.93-0.741
		c-0.142-0.014-0.259-0.025-0.341-0.04c-0.071-0.011-0.15-0.016-0.239-0.023c-0.882-0.066-2.524-0.189-4.637-3.594
		c-1.768-2.849-4.632-2.213-4.97-2.127c-0.001,0.146-0.003,0.284-0.003,0.405c0,1.458-0.121,2.796,0.729,4.498
		c-0.122,1.459,2.188,8.631,3.282,11.063c0.731,1.625,1.355,2.546,2.231,4.029c0.888-1.364,2.592-3.815,4.789-6.168
		C47.842,41.036,47.456,39.478,48.766,37.275z"/>
	<path fill="#FFFFFF" d="M50.413,41.976c1.014,0.647,2.508,0.689,3.584,0.033c1.247-0.758,1.653-1.665,1.765-2.338
		c-0.468-0.265-0.913-0.565-1.333-0.896C53.01,39.615,51.652,40.75,50.413,41.976z"/>
	<path fill="#FFFFFF" d="M77.918,47.128c-2.171-0.127-3.031-1.138-3.789-2.03c-0.08-0.094-0.16-0.189-0.243-0.284
		c-0.324-0.371-0.446-0.748-0.545-1.052c-0.161-0.496-0.288-0.888-2.797-0.888c-3.81,0-4.263-0.219-5.36-1.588
		c-0.093-0.115-0.193-0.24-0.306-0.376l-0.068-0.096c-0.08-0.136-0.168-0.252-0.255-0.374c-1.111,0.394-2.307,0.61-3.554,0.61
		c-0.171,0-0.34-0.005-0.509-0.013c1.107,6.223,3.217,16.996,4.484,19.925c0.142,0.017,0.219,0.024,0.219,0.024
		c1.702-0.365,3.161-0.122,6.808-2.553c5.756-3.895,8.328-8.021,9.36-10.171l-0.728,0.485
		C80.628,48.738,79.583,47.227,77.918,47.128z"/>
	<path fill="#FFFFFF" d="M83.431,26.221c-0.064-0.772-1.049-2.839-2.177-5.117c-0.58,0.141-8.021,1.965-11.292,3.582
		c1.059,1.654,1.676,3.619,1.676,5.729c0,1.093-0.165,2.147-0.472,3.14c2.884,1.022,10.42,6.417,12.505,7.931
		c0.583-2.049,1.138-4.356,1.339-6.269C85.498,30.597,83.553,27.68,83.431,26.221z"/>
	<path fill="#FFFFFF" d="M70.642,34.913c-0.989,2.117-2.655,3.853-4.719,4.932c0.038,0.059,0.077,0.116,0.114,0.177
		c0.104,0.126,0.198,0.244,0.286,0.353c0.756,0.943,0.835,1.042,4.222,1.042c3.036,0,3.768,0.611,4.184,1.896
		c0.072,0.221,0.128,0.396,0.255,0.541c0.087,0.1,0.173,0.2,0.257,0.299c0.704,0.829,1.214,1.428,2.762,1.519
		c1.898,0.111,3.159,1.406,3.634,1.989c0.242-0.568,0.335-0.896,0.335-0.896s0.603-1.639,1.279-3.852l-0.046,0.058
		C79.291,40.103,72.652,35.554,70.642,34.913z"/>
</g>
<polygon fill="#FFFFFF" points="23.311,14.146 28.483,14.146 28.483,15.503 25.887,15.503 25.887,16.556 28.483,16.556 
	28.483,18.044 25.815,18.044 25.815,18.553 28.483,18.553 28.483,20.041 25.779,20.041 25.779,20.948 28.483,20.948 28.483,34.016 
	25.887,34.016 25.887,36.012 26.904,36.012 26.904,37.21 25.779,37.21 25.779,38.411 26.94,38.411 26.94,39.899 25.633,39.899 
	25.633,41.315 28.483,41.315 28.483,42.44 25.706,42.44 25.706,43.602 28.483,43.602 28.483,44.8 25.669,44.8 25.669,46.179 
	28.483,46.179 28.483,83.061 23.311,83.061 23.311,59.976 26.214,59.976 26.214,58.449 23.311,58.449 23.311,56.851 26.214,56.851 
	26.214,55.944 23.311,55.944 23.311,54.092 26.105,54.092 26.105,52.604 24.98,52.604 24.98,51.188 26.069,51.188 26.069,50.027 
	24.871,50.027 24.871,48.756 26.142,48.756 26.142,47.341 23.311,47.341 23.311,33.183 26.033,33.183 26.033,31.585 23.311,31.585 
	23.311,30.715 25.96,30.715 25.96,29.517 23.311,29.517 23.311,28.718 25.924,28.718 25.924,26.903 24.944,26.903 24.944,25.814 
	25.924,25.814 25.924,24.363 24.944,24.363 24.944,23.128 25.852,23.128 25.852,21.567 23.311,21.567 "/>
<polygon fill="#29378D" points="23.438,76.245 28.271,66.459 28.26,59.072 23.469,75.759 "/>
<g>
	<circle fill="#FFFFFF" cx="67.011" cy="78.963" r="3.16"/>
	<circle fill="#FFFFFF" cx="88.052" cy="78.963" r="3.16"/>
	<path fill="#FFFFFF" d="M97.935,21.543c0.126-0.17,0.283-0.382,0.283-0.713c0-0.914-0.607-1.153-1.116-1.192
		c-0.357-0.028-0.671,0.075-0.91,0.296c-0.243,0.225-0.387,0.56-0.387,0.896c0,0.446,0.475,0.878,0.707,1.063v2.184l-4.32,15.12
		l-0.009,0.032V50.27l-0.061,0.099l0.061,0.121v20.378H79.784l-0.953-2.685h-0.692l-1.126,2.857h-3.03v-3.464h-9.265L61.6,72.946
		h-1.905l0.086,7.013h2.685c0,0,0.26-2.856,0.26-2.684s0.606-3.377,4.502-3.03c3.897,0.346,4.502,2.857,4.502,2.857v2.943h11.95
		c0,0-0.086-1.559,0.086-2.338c0.172-0.779,1.817-3.982,5.455-3.03c3.637,0.952,3.463,5.022,3.463,5.022h3.896v2.251h0.78V70.868
		h-4.692v-9.801h4.606c0.006,3.925,0.011,7.311,0.016,9.628l0.486-0.001c-0.006-2.907-0.01-6.275-0.016-9.854l0.077-0.125
		l-0.077-0.154c-0.009-6.626-0.018-13.952-0.021-20.436l0.011-0.019l-0.011-0.022c-0.006-9.966,0-17.928,0.03-18.252
		C97.794,21.732,97.859,21.645,97.935,21.543z M92.668,39.297l1.489-5.211l2.98,5.887h-4.469V39.297z M97.253,40.459
		c0.002,2.883,0.004,5.895,0.007,8.882l-4.441-8.882H97.253z M92.668,41.246l4.386,8.771h-4.386V41.246z M92.668,60.581v-9.118
		l4.559,9.118H92.668z M92.732,50.502h4.529c0.003,3.142,0.008,6.229,0.012,9.081L92.732,50.502z M97.544,21.253
		c-0.093,0.125-0.198,0.268-0.247,0.46c-0.039,0.158-0.049,7.916-0.045,17.408l-2.787-5.503h2.461v-0.486h-2.499l2.559-8.955
		l0.01-2.529l-0.101-0.072c-0.245-0.177-0.606-0.536-0.606-0.745c0-0.157,0.061-0.381,0.232-0.539
		c0.139-0.128,0.322-0.184,0.542-0.168c0.474,0.037,0.667,0.241,0.667,0.707C97.731,21.001,97.648,21.112,97.544,21.253z"/>
</g>
<g>
	<polygon fill="#FFFFFF" points="63.032,36.162 60.775,28.88 59.22,36.213 56.741,33.734 56.741,39.307 64.673,39.307 
		64.673,33.905 	"/>
	<polygon fill="#FFFFFF" points="59.125,27.871 60.775,27.002 62.426,27.871 62.111,26.032 63.447,24.73 61.601,24.462 
		60.775,22.79 59.95,24.462 58.104,24.73 59.44,26.032 	"/>
</g>
<path fill="#29378D" d="M40.769,40.945h0.167h0.204v-2.767h-1.886c0.28,0.926,0.589,1.873,0.895,2.767
	C40.602,40.96,40.313,40.938,40.769,40.945z"/>
<g>
	<path fill="#FFFFFF" d="M113.655,81.76L5.525,81.776c0.714,1.771,1.482,3.397,2.426,5.13c3.068,5.753,7.019,10.911,11.817,15.294
		l79.662,0.042C105.612,96.595,110.431,89.461,113.655,81.76z"/>
</g>
<g>
	<g>
		<path fill="#1E184E" d="M17.038,98.656V84.945h1.33l1.58,9.709c0.146,0.903,0.252,1.58,0.319,2.029
			c0.076-0.499,0.194-1.231,0.355-2.198l1.599-9.54h1.189v13.711h-0.852V87.18l-1.94,11.476H19.82l-1.931-11.672v11.672H17.038z"/>
		<path fill="#1E184E" d="M24.566,91.978c0-2.275,0.297-4.057,0.893-5.345c0.595-1.287,1.363-1.932,2.305-1.932
			c0.617,0,1.172,0.303,1.667,0.907c0.495,0.605,0.873,1.448,1.132,2.53c0.259,1.081,0.389,2.309,0.389,3.681
			c0,1.39-0.137,2.634-0.41,3.731c-0.273,1.098-0.66,1.929-1.161,2.492c-0.501,0.564-1.042,0.846-1.622,0.846
			c-0.628,0-1.19-0.312-1.686-0.935c-0.495-0.624-0.87-1.475-1.125-2.553C24.694,94.323,24.566,93.182,24.566,91.978z
			 M25.477,92.006c0,1.652,0.217,2.954,0.649,3.904c0.433,0.951,0.976,1.427,1.628,1.427c0.665,0,1.212-0.48,1.642-1.44
			s0.645-2.323,0.645-4.087c0-1.116-0.092-2.091-0.275-2.923c-0.184-0.833-0.453-1.478-0.806-1.937
			c-0.354-0.458-0.75-0.687-1.191-0.687c-0.626,0-1.164,0.44-1.615,1.323C25.703,88.469,25.477,89.943,25.477,92.006z"/>
		<path fill="#1E184E" d="M36.855,93.849l0.884,0.458c-0.186,1.49-0.519,2.626-1,3.409s-1.069,1.173-1.765,1.173
			c-0.719,0-1.305-0.3-1.756-0.901c-0.451-0.603-0.794-1.474-1.029-2.614c-0.235-1.142-0.353-2.366-0.353-3.676
			c0-1.428,0.133-2.673,0.398-3.736s0.644-1.871,1.134-2.422c0.49-0.553,1.03-0.828,1.62-0.828c0.668,0,1.229,0.349,1.685,1.047
			c0.456,0.699,0.772,1.681,0.952,2.946l-0.87,0.421c-0.155-0.997-0.379-1.724-0.674-2.18c-0.294-0.454-0.665-0.682-1.111-0.682
			c-0.513,0-0.942,0.252-1.287,0.757s-0.587,1.184-0.727,2.035c-0.14,0.851-0.209,1.729-0.209,2.632
			c0,1.166,0.083,2.185,0.249,3.054c0.165,0.87,0.423,1.52,0.772,1.95c0.349,0.43,0.727,0.646,1.134,0.646
			c0.495,0,0.914-0.293,1.257-0.879S36.733,95.002,36.855,93.849z"/>
		<path fill="#1E184E" d="M38.841,84.945h4.318v1.618h-3.434v12.093h-0.884V84.945z"/>
		<path fill="#1E184E" d="M43.086,91.978c0-2.275,0.297-4.057,0.893-5.345c0.595-1.287,1.363-1.932,2.305-1.932
			c0.616,0,1.172,0.303,1.667,0.907c0.495,0.605,0.873,1.448,1.132,2.53c0.26,1.081,0.39,2.309,0.39,3.681
			c0,1.39-0.137,2.634-0.41,3.731s-0.66,1.929-1.161,2.492c-0.501,0.564-1.042,0.846-1.622,0.846c-0.628,0-1.19-0.312-1.685-0.935
			c-0.495-0.624-0.871-1.475-1.125-2.553C43.213,94.323,43.086,93.182,43.086,91.978z M43.997,92.006
			c0,1.652,0.216,2.954,0.649,3.904c0.433,0.951,0.975,1.427,1.628,1.427c0.665,0,1.212-0.48,1.642-1.44s0.645-2.323,0.645-4.087
			c0-1.116-0.092-2.091-0.275-2.923c-0.184-0.833-0.453-1.478-0.806-1.937c-0.354-0.458-0.751-0.687-1.191-0.687
			c-0.625,0-1.164,0.44-1.614,1.323C44.222,88.469,43.997,89.943,43.997,92.006z"/>
		<path fill="#1E184E" d="M50.61,98.656V84.945h2.519c0.443,0,0.782,0.044,1.016,0.131c0.328,0.112,0.603,0.326,0.825,0.641
			c0.222,0.315,0.4,0.756,0.535,1.324c0.135,0.566,0.203,1.19,0.203,1.87c0,1.166-0.181,2.152-0.542,2.96s-1.014,1.211-1.958,1.211
			h-1.713v5.574H50.61z M51.494,91.464h1.726c0.571,0,0.977-0.219,1.216-0.655s0.36-1.051,0.36-1.842
			c0-0.574-0.071-1.064-0.212-1.474c-0.141-0.408-0.327-0.678-0.558-0.81c-0.149-0.081-0.424-0.121-0.824-0.121h-1.708V91.464z"/>
		<path fill="#1E184E" d="M56.846,84.945h4.318v1.618h-3.434v12.093h-0.884V84.945z"/>
		<path fill="#1E184E" d="M61.901,98.656V84.945h4.828v1.618h-3.944v4.199h3.693v1.608h-3.693v4.668h4.099v1.617H61.901z"/>
		<path fill="#1E184E" d="M67.835,91.978c0-2.275,0.298-4.057,0.894-5.345c0.594-1.287,1.363-1.932,2.304-1.932
			c0.617,0,1.172,0.303,1.668,0.907c0.494,0.605,0.872,1.448,1.131,2.53c0.26,1.081,0.389,2.309,0.389,3.681
			c0,1.39-0.137,2.634-0.409,3.731c-0.273,1.098-0.661,1.929-1.162,2.492c-0.501,0.564-1.042,0.846-1.622,0.846
			c-0.629,0-1.19-0.312-1.686-0.935c-0.495-0.624-0.87-1.475-1.125-2.553C67.964,94.323,67.835,93.182,67.835,91.978z
			 M68.748,92.006c0,1.652,0.216,2.954,0.649,3.904c0.433,0.951,0.975,1.427,1.628,1.427c0.665,0,1.212-0.48,1.641-1.44
			c0.43-0.96,0.645-2.323,0.645-4.087c0-1.116-0.092-2.091-0.275-2.923c-0.184-0.833-0.453-1.478-0.807-1.937
			c-0.353-0.458-0.75-0.687-1.19-0.687c-0.626,0-1.164,0.44-1.615,1.323C68.973,88.469,68.748,89.943,68.748,92.006z"/>
		<path fill="#1E184E" d="M77.06,98.656V86.563h-2.2v-1.618h5.292v1.618h-2.209v12.093H77.06z"/>
		<path fill="#1E184E" d="M81.058,98.656V84.945h2.519c0.443,0,0.783,0.044,1.016,0.131c0.328,0.112,0.603,0.326,0.825,0.641
			c0.221,0.315,0.399,0.756,0.535,1.324c0.136,0.566,0.203,1.19,0.203,1.87c0,1.166-0.18,2.152-0.542,2.96s-1.015,1.211-1.958,1.211
			h-1.712v5.574H81.058z M81.942,91.464h1.726c0.572,0,0.977-0.219,1.217-0.655c0.239-0.437,0.359-1.051,0.359-1.842
			c0-0.574-0.071-1.064-0.211-1.474c-0.142-0.408-0.328-0.678-0.559-0.81c-0.149-0.081-0.423-0.121-0.824-0.121h-1.708V91.464z"/>
		<path fill="#1E184E" d="M87.298,98.656V84.945h4.828v1.618h-3.944v4.199h3.693v1.608h-3.693v4.668h4.1v1.617H87.298z"/>
		<path fill="#1E184E" d="M98.266,93.849l0.883,0.458c-0.185,1.49-0.519,2.626-0.999,3.409c-0.481,0.783-1.07,1.173-1.766,1.173
			c-0.72,0-1.305-0.3-1.756-0.901c-0.45-0.603-0.793-1.474-1.028-2.614c-0.235-1.142-0.354-2.366-0.354-3.676
			c0-1.428,0.133-2.673,0.398-3.736c0.266-1.063,0.644-1.871,1.135-2.422c0.49-0.553,1.029-0.828,1.619-0.828
			c0.667,0,1.23,0.349,1.685,1.047c0.457,0.699,0.773,1.681,0.952,2.946l-0.87,0.421c-0.155-0.997-0.379-1.724-0.673-2.18
			c-0.295-0.454-0.666-0.682-1.112-0.682c-0.513,0-0.942,0.252-1.287,0.757c-0.344,0.505-0.586,1.184-0.726,2.035
			c-0.141,0.851-0.209,1.729-0.209,2.632c0,1.166,0.083,2.185,0.248,3.054c0.167,0.87,0.424,1.52,0.772,1.95
			c0.35,0.43,0.727,0.646,1.134,0.646c0.496,0,0.915-0.293,1.258-0.879C97.912,95.873,98.145,95.002,98.266,93.849z"/>
		<path fill="#1E184E" d="M101.627,98.656V86.563h-2.199v-1.618h5.292v1.618h-2.208v12.093H101.627z"/>
	</g>
</g>
</svg>
